HIERARCHY
ROOT Hips
{
	OFFSET 0.000000 0.000000 0.000000
	CHANNELS 6 Xposition Yposition Zposition Xrotation Yrotation Zrotation
	JOINT LHipJoint
	{
		OFFSET 0.000000 0.000000 0.000000
		CHANNELS 3 Xrotation Yrotation Zrotation
		JOINT LeftUpLeg
		{
			OFFSET 7.496830 -9.870465 4.616095
			CHANNELS 3 Xrotation Yrotation Zrotation
			JOINT LeftLeg
			{
				OFFSET 13.464605 -36.993715 0.000000
				CHANNELS 3 Xrotation Yrotation Zrotation
				JOINT LeftFoot
				{
					OFFSET 14.092100 -38.717745 0.000000
					CHANNELS 3 Xrotation Yrotation Zrotation
					JOINT LeftToeBase
					{
						OFFSET 0.867020 -2.382105 12.774025
						CHANNELS 3 Xrotation Yrotation Zrotation
						End Site
						{
							OFFSET 0.000000 0.000000 0.000000
						}
					}
				}
			}
		}
	}
	JOINT RHipJoint
	{
		OFFSET 0.000000 0.000000 0.000000
		CHANNELS 3 Xrotation Yrotation Zrotation
		JOINT RightUpLeg
		{
			OFFSET -7.180360 -9.870465 4.616095
			CHANNELS 3 Xrotation Yrotation Zrotation
			JOINT RightLeg
			{
				OFFSET -13.983915 -38.420525 0.000000
				CHANNELS 3 Xrotation Yrotation Zrotation
				JOINT RightFoot
				{
					OFFSET -14.125430 -38.809265 0.000000
					CHANNELS 3 Xrotation Yrotation Zrotation
					JOINT RightToeBase
					{
						OFFSET -0.906015 -2.489245 12.997325
						CHANNELS 3 Xrotation Yrotation Zrotation
						End Site
						{
							OFFSET 0.000000 0.000000 0.000000
						}
					}
				}
			}
		}
	}
	JOINT LowerBack
	{
		OFFSET 0.000000 0.000000 0.000000
		CHANNELS 3 Xrotation Yrotation Zrotation
		JOINT Spine
		{
			OFFSET 0.155485 11.195745 -1.063590
			CHANNELS 3 Xrotation Yrotation Zrotation
			JOINT Spine1
			{
				OFFSET 0.311960 11.268675 -0.235125
				CHANNELS 3 Xrotation Yrotation Zrotation
				JOINT Neck
				{
					OFFSET 0.000000 0.000000 0.000000
					CHANNELS 3 Xrotation Yrotation Zrotation
					JOINT Neck1
					{
						OFFSET -0.297935 9.604320 0.946110
						CHANNELS 3 Xrotation Yrotation Zrotation
						JOINT Head
						{
							OFFSET 0.572385 9.687480 -0.681835
							CHANNELS 3 Xrotation Yrotation Zrotation
							End Site
							{
								OFFSET 0.000000 0.000000 0.000000
							}
						}
					}
				}
				JOINT LeftShoulder
				{
					OFFSET 0.000000 0.000000 0.000000
					CHANNELS 3 Xrotation Yrotation Zrotation
					JOINT LeftArm
					{
						OFFSET 18.493255 6.604895 -1.711655
						CHANNELS 3 Xrotation Yrotation Zrotation
						JOINT LeftForeArm
						{
							OFFSET 27.406500 -0.000000 -0.000000
							CHANNELS 3 Xrotation Yrotation Zrotation
							JOINT LeftHand
							{
								OFFSET 19.159580 -0.000000 -0.000000
								CHANNELS 3 Xrotation Yrotation Zrotation
								End Site
								{
									OFFSET 0.000000 0.000000 0.000000
								}
							}
						}
					}
				}
				JOINT RightShoulder
				{
					OFFSET 0.000000 0.000000 0.000000
					CHANNELS 3 Xrotation Yrotation Zrotation
					JOINT RightArm
					{
						OFFSET -17.251300 7.557275 -2.225575
						CHANNELS 3 Xrotation Yrotation Zrotation
						JOINT RightForeArm
						{
							OFFSET -28.830450 -0.000000 -0.000000
							CHANNELS 3 Xrotation Yrotation Zrotation
							JOINT RightHand
							{
								OFFSET -18.942935 -0.000000 -0.000000
								CHANNELS 3 Xrotation Yrotation Zrotation
								End Site
								{
									OFFSET 0.000000 0.000000 0.000000
								}
							}
						}
					}
				}
			}
		}
	}
}
MOTION
Frames: 4
Frame Time: 0.033333
-44.909205 86.322253 132.699600 9.595475 50.535860 -15.551587 -8.411322 27.378108 -8.661503 -15.066037 3.396888 -31.592011 53.367010 20.939770 -1.745333 14.242352 -20.707927 56.542525 -15.814002 18.580100 -4.861513 -0.868812 -29.195350 1.246227 -12.634898 -13.802811 2.142123 65.828924 -20.551682 4.917530 29.631092 26.317974 -49.825449 -12.560593 -31.579033 3.463133 22.114595 3.346899 -13.525905 4.238372 13.190739 19.777527 -26.303635 -6.130210 -12.587165 -18.078923 -3.577706 -6.708597 7.687728 -5.562093 4.524505 -10.093725 -2.333494 -3.048089 14.317459 35.239123 -0.866355 41.162558 -36.410742 -34.806055 -137.993877 -72.262192 -133.320830 12.839702 -9.873744 12.223745 -13.862059 -43.335880 -20.433838 2.275633 39.017926 71.191079 64.133350 72.920042 -63.138555 24.663545 24.983183 -23.161520 
-42.804877 86.588233 135.160575 11.740693 54.179223 -16.690969 -7.338686 26.010526 -9.987670 -13.979417 2.705202 -30.247845 53.916135 21.650515 -2.262295 15.196446 -21.379244 58.227551 -17.262001 19.291299 -4.235988 -1.655768 -28.751825 0.732681 -15.652872 -12.036467 0.247557 69.468024 -22.938236 5.349090 46.622350 26.041881 -65.293605 -3.056238 -31.167460 8.439281 23.265115 3.572811 -13.980892 2.805053 13.016666 19.508595 -25.475916 -6.114636 -13.074905 -18.270689 -3.860444 -6.906985 7.099265 -6.111601 3.779517 -10.428751 -1.916466 -3.169899 17.190146 35.033316 -2.838343 35.878505 -32.417438 -41.376607 -143.862090 -73.119255 -138.964327 15.645539 -7.710602 15.257196 -13.905060 -44.469896 -20.533974 3.893120 37.840165 69.833997 63.819827 71.651708 -62.617803 25.771620 25.067219 -23.931206 
-40.877760 86.590460 137.324550 14.258721 58.058078 -18.176672 -6.237718 25.016824 -11.040016 -13.022317 1.885474 -29.489187 54.721601 22.297417 -2.263310 16.188025 -22.569828 59.680926 -18.515593 19.894887 -3.725038 -2.613677 -28.050401 0.485622 -18.499319 -9.308577 0.399391 72.567056 -30.894459 3.558260 51.173806 21.055649 -72.630175 -0.706010 -34.794742 7.746334 24.450203 3.588721 -14.246810 2.493363 12.743860 18.862034 -25.129096 -5.954214 -13.071234 -18.020223 -3.216989 -6.740324 6.557818 -5.683554 3.208325 -10.602402 -1.416256 -3.115997 18.237429 33.609719 -3.627167 28.654199 -29.914845 -49.806859 -146.426930 -74.619532 -142.239271 15.920169 -6.318743 16.205954 -13.473098 -45.021643 -19.673933 4.885664 35.642694 68.708433 54.443978 69.914998 -52.598965 25.599310 25.173876 -23.700127 
-39.091140 86.405495 139.251750 18.092006 61.607024 -20.992949 -5.626945 23.945348 -11.504041 -12.172331 0.903892 -29.080999 55.383160 22.222105 -2.017173 16.743620 -24.800480 60.125222 -19.560115 19.772764 -3.551979 -3.605786 -26.816109 0.362547 -21.769007 -5.535038 2.464974 75.475048 -38.784478 1.111157 44.803844 16.729253 -71.551103 -2.273254 -36.374500 5.115214 25.597877 3.548034 -13.593807 2.222803 11.817294 17.274225 -25.001566 -5.552591 -13.181940 -17.379672 -1.777652 -6.349144 6.603531 -4.380623 3.369802 -10.666507 -1.235020 -2.934431 17.061570 32.026634 -3.196800 23.048225 -30.108556 -55.336229 -143.926138 -75.878990 -140.767318 14.985183 -6.211263 16.299902 -12.979945 -45.139611 -18.732947 5.602011 33.661814 68.584149 42.174965 65.805392 -39.247051 23.217926 24.825129 -21.311112 
